{"title":"Zanjeer 2013 Hindi Movies HDDVDRip XviD ESubs 5.1 New Source wit","uid":8997881,"size":737204907,"categoryP":"video","categoryS":"movies","magnet":"?xt=urn:btih:24e07bdd2b968c6295bd4393f82f24d81b0f7d82&amp;dn=Zanjeer+2013+Hindi+Movies+HDDVDRip+XviD+ESubs+5.1+New+Source+wit&amp;tr=udp%3A%2F%2Ftracker.openbittorrent.com%3A80&amp;tr=udp%3A%2F%2Fopen.demonii.com%3A1337&amp;tr=udp%3A%2F%2Ftracker.coppersurfer.tk%3A6969&amp;tr=udp%3A%2F%2Fexodus.desync.com%3A6969","seeders":1,"leechers":1,"uploader":"basicssom","files":3,"time":1380903200,"description":" &lt;a href=&quot;http://s5.postimg.org/hgeuxszk7/logo.png&quot; rel=&quot;nofollow&quot; target=&quot;_NEW&quot;&gt;http://s5.postimg.org/hgeuxszk7/logo.png&lt;/a&gt;\n\nZanjeer 2013 Hindi Movies HDDVDRip XviD ESubs 5.1 New Source with Sample ~ â˜»rDXâ˜»\n\nPlease check SCREEN SHOTS first :\n &lt;a href=&quot;\nhttp://myimghosting.serveftp.com/13/ZanjeerDVD.html&quot; rel=&quot;nofollow&quot; target=&quot;_NEW&quot;&gt;\nhttp://myimghosting.serveftp.com/13/ZanjeerDVD.html&lt;/a&gt;\n &lt;a href=&quot;\nhttp://myimghost.cwahi.net/ZanjeerDVD.html&quot; rel=&quot;nofollow&quot; target=&quot;_NEW&quot;&gt;\nhttp://myimghost.cwahi.net/ZanjeerDVD.html&lt;/a&gt;\n\nAll rDX torrents are Seeding From the 1Gbps Seedbox 24X7\n &lt;a href=&quot;\nhttp://s5.postimg.org/jivz0lkav/Zanjeer.jpg&quot; rel=&quot;nofollow&quot; target=&quot;_NEW&quot;&gt;\nhttp://s5.postimg.org/jivz0lkav/Zanjeer.jpg&lt;/a&gt;\n &lt;a href=&quot;\nhttp://s5.postimg.org/xdu9j2epz/Zanjeer1.jpg&quot; rel=&quot;nofollow&quot; target=&quot;_NEW&quot;&gt;\nhttp://s5.postimg.org/xdu9j2epz/Zanjeer1.jpg&lt;/a&gt;\n &lt;a href=&quot;\nhttp://s5.postimg.org/3n74xatqf/Zanjeer2.jpg&quot; rel=&quot;nofollow&quot; target=&quot;_NEW&quot;&gt;\nhttp://s5.postimg.org/3n74xatqf/Zanjeer2.jpg&lt;/a&gt;\n\nFormat                                   : AVI\nFormat/Info                              : Audio Video Interleave\nFile size                                : 695 MiB\nDuration                                 : 2h 15mn\nOverall bit rate                         : 718 Kbps\nWriting library                          : MPlayer\n\nVideo\nID                                       : 0\nFormat                                   : MPEG-4 Visual\nFormat profile                           : Advanced Simple@L5\nFormat settings, BVOP                    : 1\nFormat settings, QPel                    : No\nFormat settings, GMC                     : No warppoints\nFormat settings, Matrix                  : Default (H.263)\nCodec ID                                 : XVID\nCodec ID/Hint                            : XviD\nDuration                                 : 2h 15mn\nBit rate                                 : 633 Kbps\nWidth                                    : 640 pixels\nHeight                                   : 272 pixels\nDisplay aspect ratio                     : 2.500\nFrame rate                               : 23.976 fps\nColor space                              : YUV\nChroma subsampling                       : 4:2:0\nBit depth                                : 8 bits\nScan type                                : Progressive\nCompression mode                         : Lossy\nBits/(Pixel*Frame)                       : 0.152\nStream size                              : 612 MiB (88%)\nWriting library                          : XviD 1.2.1 (UTC 2008-12-04)\n\nAudio\nID                                       : 1\nFormat                                   : MPEG Audio\nFormat version                           : Version 1\nFormat profile                           : Layer 3\nMode                                     : Joint stereo\nMode extension                           : MS Stereo\nCodec ID                                 : 55\nCodec ID/Hint                            : MP3\nDuration                                 : 2h 15mn\nBit rate mode                            : Constant\nBit rate                                 : 80.0 Kbps\nChannel(s)                               : 2 channels\nSampling rate                            : 32.0 KHz\nCompression mode                         : Lossy\nStream size                              : 77.4 MiB (11%)\nAlignment                                : Split accross interleaves\nInterleave, duration                     : 500 ms (11.99 video frames)\nInterleave, preload duration             : 500 ms\nWriting library                          : LAME3.99r\nEncoding settings                        : -m j -V 4 -q 2 -lowpass 13.5 -b 80","torrent":{"xt":"urn:btih:24e07bdd2b968c6295bd4393f82f24d81b0f7d82","amp;dn":"Zanjeer+2013+Hindi+Movies+HDDVDRip+XviD+ESubs+5.1+New+Source+wit","amp;tr":["udp%3A%2F%2Ftracker.openbittorrent.com%3A80","udp%3A%2F%2Fopen.demonii.com%3A1337","udp%3A%2F%2Ftracker.coppersurfer.tk%3A6969","udp%3A%2F%2Fexodus.desync.com%3A6969"],"infoHash":"24e07bdd2b968c6295bd4393f82f24d81b0f7d82","infoHashBuffer":{"type":"Buffer","data":[36,224,123,221,43,150,140,98,149,189,67,147,248,47,36,216,27,15,125,130]},"announce":[],"urlList":[]}}